<?xml version="1.0" standalone="no"?>
<!DOCTYPE svg PUBLIC "-//W3C//DTD SVG 20010904//EN"
 "http://www.w3.org/TR/2001/REC-SVG-20010904/DTD/svg10.dtd">
<svg version="1.0" xmlns="http://www.w3.org/2000/svg"
 width="702.000000pt" height="702.000000pt" viewBox="0 0 702.000000 702.000000"
 preserveAspectRatio="xMidYMid meet">
<metadata>
Created by potrace 1.14, written by Peter Selinger 2001-2017
</metadata>
<g transform="translate(0.000000,702.000000) scale(0.100000,-0.100000)"
fill="#000000" stroke="none">
<path d="M364 6655 c3 -8 1 -15 -3 -15 -5 0 -8 -8 -6 -17 2 -10 4 -18 5 -18 1
0 3 -10 4 -22 2 -13 0 -23 -4 -23 -3 0 -5 -12 -4 -27 1 -16 3 -28 4 -28 1 0 2
-15 3 -33 1 -17 0 -32 -3 -32 -3 0 -5 -11 -5 -25 0 -14 4 -25 9 -25 5 0 3 -7
-4 -15 -7 -8 -8 -15 -3 -15 5 0 9 -9 9 -20 0 -11 -3 -20 -6 -20 -3 0 -5 -12
-4 -27 1 -16 3 -28 4 -28 1 0 2 -15 3 -33 1 -17 0 -32 -3 -32 -3 0 -5 -11 -5
-25 0 -14 4 -25 9 -25 5 0 3 -7 -4 -15 -7 -8 -8 -15 -3 -15 5 0 9 -9 9 -20 0
-11 -3 -20 -6 -20 -3 0 -6 -9 -6 -20 0 -11 4 -20 9 -20 5 0 4 -6 -2 -14 -8
-10 -9 -16 -1 -21 7 -4 7 -12 0 -26 -8 -14 -7 -19 1 -19 9 0 9 -3 0 -14 -8
-10 -9 -16 -1 -21 7 -4 7 -12 0 -26 -8 -14 -7 -19 1 -19 9 0 9 -3 0 -14 -8
-10 -9 -16 -1 -21 7 -4 7 -12 0 -26 -8 -14 -7 -19 1 -19 9 0 9 -3 0 -14 -8
-10 -9 -16 -1 -21 7 -4 7 -12 0 -24 -5 -10 -7 -21 -4 -24 8 -7 11 -77 4 -77
-3 0 -5 -11 -5 -25 0 -14 4 -25 9 -25 5 0 3 -7 -4 -15 -7 -8 -8 -15 -3 -15 5
0 9 -9 9 -20 0 -11 -3 -20 -6 -20 -7 0 -5 -48 2 -56 4 -3 2 -18 -2 -34 -4 -16
-6 -31 -3 -34 7 -6 10 -76 3 -76 -3 0 -5 -11 -5 -25 0 -14 4 -25 9 -25 5 0 3
-7 -4 -15 -7 -8 -8 -15 -3 -15 5 0 9 -9 9 -20 0 -11 -3 -20 -6 -20 -7 0 -5
-48 2 -56 4 -3 2 -19 -2 -35 -6 -19 -5 -29 2 -29 7 0 6 -5 -1 -14 -8 -10 -9
-16 -1 -21 7 -4 7 -12 0 -26 -8 -14 -7 -19 1 -19 9 0 9 -3 0 -14 -8 -10 -9
-16 -1 -21 7 -4 7 -12 0 -26 -8 -14 -7 -19 1 -19 9 0 9 -3 0 -14 -8 -10 -9
-16 -1 -21 7 -4 7 -12 0 -26 -8 -14 -7 -19 1 -19 9 0 9 -3 0 -14 -8 -10 -9
-16 -1 -21 6 -4 7 -12 1 -22 -4 -9 -5 -30 -1 -49 5 -20 3 -37 -3 -43 -7 -7 -7
-11 -1 -11 5 0 10 -9 10 -20 0 -11 -3 -20 -6 -20 -3 0 -5 -12 -4 -27 1 -16 3
-28 4 -28 1 0 2 -15 3 -33 1 -17 0 -32 -3 -32 -3 0 -5 -11 -5 -25 0 -14 4 -25
9 -25 5 0 3 -7 -4 -15 -7 -8 -8 -15 -3 -15 5 0 9 -9 9 -20 0 -11 -3 -20 -6
-20 -3 0 -5 -12 -4 -27 1 -16 3 -28 4 -28 1 0 2 -15 3 -33 1 -17 0 -32 -3 -32
-3 0 -5 -11 -5 -25 0 -14 4 -25 9 -25 5 0 3 -7 -4 -15 -7 -8 -8 -15 -3 -15 5
0 9 -9 9 -20 0 -11 -3 -20 -6 -20 -3 0 -6 -9 -6 -20 0 -11 4 -20 9 -20 5 0 4
-6 -2 -14 -8 -10 -9 -16 -1 -21 7 -4 7 -12 0 -26 -8 -14 -7 -19 1 -19 9 0 9
-3 0 -14 -8 -10 -9 -16 -1 -21 7 -4 7 -12 0 -26 -8 -14 -7 -19 1 -19 9 0 9 -3
0 -14 -8 -10 -9 -16 -1 -21 7 -4 7 -12 0 -26 -8 -14 -7 -19 1 -19 9 0 9 -3 0
-14 -8 -10 -9 -16 -1 -21 7 -4 7 -12 0 -24 -5 -10 -7 -21 -4 -24 8 -7 11 -77
4 -77 -3 0 -5 -11 -5 -25 0 -14 4 -25 9 -25 5 0 3 -7 -4 -15 -7 -8 -8 -15 -3
-15 5 0 9 -9 9 -20 0 -11 -3 -20 -6 -20 -7 0 -5 -48 2 -56 4 -3 2 -18 -2 -34
-4 -16 -6 -31 -3 -34 7 -6 10 -76 3 -76 -3 0 -5 -11 -5 -25 0 -14 4 -25 9 -25
5 0 3 -7 -4 -15 -7 -8 -8 -15 -3 -15 5 0 9 -9 9 -20 0 -11 -3 -20 -6 -20 -7 0
-5 -48 2 -56 4 -3 2 -19 -2 -35 -6 -19 -5 -29 2 -29 7 0 6 -5 -1 -14 -8 -10
-9 -16 -1 -21 7 -4 7 -12 0 -26 -8 -14 -7 -19 1 -19 9 0 9 -3 0 -14 -8 -10 -9
-16 -1 -21 7 -4 7 -12 0 -26 -8 -14 -7 -19 1 -19 9 0 9 -3 0 -14 -8 -10 -9
-16 -1 -21 7 -4 7 -12 0 -26 -8 -14 -7 -19 1 -19 9 0 9 -3 0 -14 -8 -10 -9
-16 -1 -21 6 -4 7 -12 1 -22 -4 -9 -5 -30 -1 -49 5 -20 3 -37 -3 -43 -7 -7 -7
-11 -1 -11 5 0 10 -9 10 -20 0 -11 -3 -20 -6 -20 -3 0 -5 -12 -4 -27 1 -16 3
-28 4 -28 1 0 2 -15 3 -33 1 -17 0 -32 -3 -32 -3 0 -5 -11 -5 -25 0 -14 4 -25
9 -25 5 0 3 -7 -4 -15 -7 -8 -8 -15 -3 -15 5 0 9 -9 9 -20 0 -11 -3 -20 -6
-20 -3 0 -5 -12 -4 -27 1 -16 3 -28 4 -28 1 0 2 -15 3 -33 1 -17 0 -32 -3 -32
-3 0 -5 -11 -5 -25 0 -14 4 -25 9 -25 5 0 3 -7 -4 -15 -7 -8 -8 -15 -3 -15 5
0 9 -9 9 -20 0 -11 -3 -20 -6 -20 -3 0 -6 -9 -6 -20 0 -11 4 -20 9 -20 5 0 4
-6 -2 -14 -8 -10 -9 -16 -1 -21 7 -4 7 -12 0 -26 -8 -14 -7 -19 1 -19 9 0 9
-3 0 -14 -8 -10 -9 -16 -1 -21 7 -4 7 -12 0 -26 -8 -14 -7 -19 1 -19 9 0 9 -3
0 -14 -8 -10 -9 -16 -1 -21 7 -4 7 -12 0 -26 -8 -14 -7 -19 1 -19 9 0 9 -3 0
-14 -8 -10 -9 -16 -1 -21 7 -4 7 -12 0 -24 -5 -10 -7 -21 -4 -24 8 -7 11 -77
4 -77 -3 0 -5 -11 -5 -25 0 -14 4 -25 9 -25 5 0 3 -7 -4 -15 -7 -8 -8 -15 -3
-15 5 0 9 -9 9 -20 0 -11 -3 -20 -6 -20 -5 0 -5 -47 0 -60 1 -3 1 -17 0 -32
-1 -20 3 -28 14 -28 9 0 16 -5 16 -11 0 -6 7 -17 15 -25 8 -9 15 -12 15 -7 0
4 8 -4 18 -20 10 -15 22 -24 25 -20 4 3 7 1 7 -6 0 -14 24 -41 37 -41 4 0 17
-13 28 -29 10 -16 23 -27 27 -25 4 3 8 1 8 -5 0 -11 47 -61 58 -61 4 -1 21
-19 37 -40 17 -21 35 -39 42 -40 6 0 15 -9 18 -20 4 -11 11 -18 16 -15 5 4 9
2 9 -3 0 -12 69 -82 80 -82 5 0 12 -9 15 -20 4 -11 11 -18 16 -15 5 4 9 -1 9
-10 0 -9 5 -13 10 -10 6 3 10 2 10 -4 0 -12 48 -61 60 -61 5 0 12 -9 15 -21 4
-11 9 -18 12 -15 3 3 18 -10 33 -29 15 -19 30 -32 34 -28 3 3 6 1 6 -5 0 -12
46 -62 58 -62 4 -1 21 -19 37 -40 17 -21 35 -39 42 -40 6 0 15 -9 18 -20 4
-11 11 -18 16 -15 5 4 9 0 9 -7 0 -7 14 -22 30 -33 16 -11 30 -23 30 -27 0
-11 49 -58 60 -58 6 0 10 -3 10 -8 0 -9 99 -112 108 -112 4 0 16 -13 27 -29
10 -16 23 -27 27 -25 4 3 8 1 8 -5 0 -13 48 -61 61 -61 6 0 7 -4 4 -10 -4 -7
842 -10 2531 -10 l2536 0 -4 25 c-3 14 -1 28 3 31 5 3 5 13 -1 23 -5 10 -6 21
-3 25 9 9 12 56 4 56 -8 0 -7 48 2 56 3 4 2 14 -3 24 -5 10 -6 20 -3 24 9 9
12 56 4 56 -8 0 -7 48 2 56 3 4 2 14 -3 24 -5 10 -6 20 -3 24 9 9 12 56 4 56
-8 0 -7 48 2 56 3 4 2 14 -3 24 -5 10 -6 20 -3 24 10 10 12 36 3 36 -8 0 -5
43 5 59 3 6 1 11 -5 11 -6 0 -8 5 -3 13 11 18 12 37 2 37 -6 0 -5 8 1 20 8 14
8 20 0 20 -7 0 -8 6 0 19 7 13 7 22 0 26 -7 4 -7 13 0 26 8 13 7 19 0 19 -7 0
-8 6 -1 18 6 10 6 24 1 32 -5 8 -6 19 -2 25 11 16 11 35 1 35 -6 0 -5 8 1 20
8 14 8 20 0 20 -7 0 -8 6 0 19 7 13 7 22 0 26 -7 4 -7 13 0 26 8 13 7 19 0 19
-7 0 -8 6 -1 18 6 10 6 24 1 32 -5 8 -6 19 -2 25 11 17 11 35 1 35 -6 0 -7 4
-4 10 10 16 14 50 7 50 -9 0 -8 47 1 56 3 4 2 14 -3 24 -5 10 -6 20 -3 24 9 9
12 56 4 56 -8 0 -7 48 2 56 3 4 2 14 -3 24 -5 10 -6 20 -3 24 10 10 12 36 3
36 -8 0 -5 43 5 59 3 6 1 11 -5 11 -6 0 -8 5 -3 13 11 18 12 37 2 37 -6 0 -5
8 1 20 8 14 8 20 0 20 -7 0 -8 6 0 19 7 13 7 22 0 26 -7 4 -7 13 0 26 8 13 7
19 0 19 -7 0 -8 6 -1 18 6 10 6 24 1 32 -5 8 -6 19 -2 25 11 16 11 35 1 35 -6
0 -5 8 1 20 8 14 8 20 0 20 -7 0 -8 6 0 19 7 13 7 22 0 26 -7 4 -7 13 0 26 8
13 7 19 0 19 -7 0 -8 6 -1 18 6 10 6 24 1 32 -5 8 -6 19 -2 25 11 17 11 35 1
35 -6 0 -7 4 -4 10 10 16 14 50 7 50 -9 0 -8 47 1 56 3 4 2 14 -3 24 -5 10 -6
20 -3 24 9 9 12 56 4 56 -8 0 -7 48 2 56 3 4 2 14 -3 24 -5 10 -6 20 -3 24 10
10 12 36 3 36 -8 0 -5 43 5 59 3 6 1 11 -5 11 -6 0 -8 5 -3 13 11 18 12 37 2
37 -6 0 -5 8 1 20 8 14 8 20 0 20 -7 0 -8 6 0 19 7 13 7 22 0 26 -7 4 -7 13 0
26 8 13 7 19 0 19 -7 0 -8 6 -1 18 6 10 6 24 1 32 -5 8 -6 19 -2 25 11 16 11
35 1 35 -6 0 -5 8 1 20 8 14 8 20 0 20 -7 0 -8 6 0 19 7 13 7 22 0 26 -7 4 -7
13 0 26 8 13 7 19 0 19 -7 0 -8 6 -1 18 6 10 6 24 1 32 -5 8 -6 19 -2 25 11
17 11 35 1 35 -6 0 -7 4 -4 10 10 16 14 50 7 50 -9 0 -8 47 1 56 3 4 2 14 -3
24 -5 10 -6 20 -3 24 9 9 12 56 4 56 -8 0 -7 48 2 56 3 4 2 14 -3 24 -5 10 -6
20 -3 24 10 10 12 36 3 36 -8 0 -5 43 5 59 3 6 1 11 -5 11 -6 0 -8 5 -3 13 11
18 12 37 2 37 -6 0 -5 8 1 20 8 14 8 20 0 20 -7 0 -8 6 0 19 7 13 7 22 0 26
-7 4 -7 13 0 26 8 13 7 19 0 19 -7 0 -8 6 -1 18 6 10 6 24 1 32 -5 8 -6 19 -2
25 11 16 11 35 1 35 -6 0 -5 8 1 20 8 14 8 20 0 20 -7 0 -8 6 0 19 7 13 7 22
0 26 -7 4 -7 13 0 26 8 13 7 19 0 19 -7 0 -8 6 -1 18 6 10 6 24 1 32 -5 8 -6
19 -2 25 11 16 11 35 1 35 -6 0 -5 8 1 20 6 11 7 20 2 20 -10 0 -8 42 3 59 3
6 1 11 -5 11 -6 0 -8 5 -3 13 11 18 12 37 2 37 -6 0 -5 8 1 20 8 14 8 20 0 20
-7 0 -8 6 0 19 7 13 7 22 0 26 -7 4 -7 13 0 26 8 13 7 19 0 19 -7 0 -8 6 -1
18 6 10 6 24 1 32 -5 8 -6 19 -2 25 11 16 11 35 1 35 -6 0 -5 8 1 20 8 14 8
20 0 20 -7 0 -8 6 0 19 7 13 7 22 0 26 -7 4 -7 13 0 26 8 13 7 19 0 19 -7 0
-8 6 -1 18 6 10 6 24 1 32 -5 8 -6 19 -2 25 11 17 11 35 1 35 -6 0 -7 4 -4 10
10 16 14 50 7 50 -9 0 -8 47 1 56 3 4 2 15 -3 25 -6 10 -6 20 -1 23 9 6 7 54
-3 63 -3 4 -1 12 5 19 7 8 7 14 -1 19 -7 4 -7 12 0 26 8 13 7 19 0 19 -6 0 -8
5 -4 12 15 23 10 58 -8 64 -10 3 -18 9 -18 14 0 10 -47 60 -58 60 -4 1 -20 19
-37 40 -16 21 -35 39 -42 40 -6 0 -15 9 -18 20 -4 11 -11 18 -16 15 -5 -4 -9
0 -9 7 0 7 -14 22 -30 33 -16 11 -30 23 -30 27 0 11 -49 58 -60 58 -6 0 -10 3
-10 8 0 9 -99 112 -108 112 -4 0 -16 13 -27 29 -10 16 -23 27 -27 25 -4 -3 -8
-1 -8 5 0 11 -47 61 -58 61 -4 1 -20 18 -37 39 -16 21 -33 37 -37 34 -5 -2 -8
3 -8 12 0 9 -4 13 -10 10 -5 -3 -10 -1 -10 5 0 13 -25 40 -37 40 -4 0 -17 13
-28 29 -10 16 -22 28 -26 26 -3 -3 -12 7 -19 20 -7 14 -19 25 -27 25 -7 0 -13
3 -13 8 0 9 -99 112 -108 112 -4 0 -16 13 -27 29 -10 16 -23 27 -27 25 -4 -3
-8 -1 -8 5 0 11 -47 61 -58 61 -4 1 -20 19 -37 40 -16 21 -35 39 -42 40 -6 0
-15 9 -18 20 -4 11 -11 18 -16 15 -5 -4 -9 1 -9 9 0 9 -7 16 -16 16 -8 0 -13
4 -10 9 6 10 -39 32 -48 23 -11 -11 -36 -11 -36 0 0 6 -6 5 -15 -2 -8 -7 -15
-9 -15 -4 0 5 -11 9 -25 9 -14 0 -25 -2 -25 -5 0 -3 -15 -4 -32 -3 -18 1 -33
2 -33 3 0 1 -12 3 -27 4 -16 1 -28 -1 -28 -4 0 -3 -9 -6 -20 -6 -11 0 -20 4
-20 9 0 5 -7 4 -15 -3 -8 -7 -15 -9 -15 -4 0 5 -11 9 -25 9 -14 0 -25 -2 -25
-5 0 -3 -15 -4 -32 -3 -18 1 -33 2 -33 3 0 1 -12 3 -27 4 -16 1 -28 -1 -28 -4
0 -3 -9 -6 -20 -6 -11 0 -20 5 -20 10 0 6 -4 6 -11 -1 -6 -6 -23 -8 -43 -3
-19 4 -40 3 -49 -1 -10 -6 -18 -5 -22 1 -5 8 -11 7 -21 -1 -11 -9 -14 -9 -14
0 0 8 -5 9 -19 1 -14 -7 -22 -7 -26 0 -5 8 -11 7 -21 -1 -11 -9 -14 -9 -14 0
0 8 -5 9 -19 1 -14 -7 -22 -7 -26 0 -5 8 -11 7 -21 -1 -11 -9 -14 -9 -14 0 0
8 -5 9 -19 1 -14 -7 -22 -7 -26 0 -5 8 -11 7 -21 -1 -9 -7 -14 -8 -14 -1 0 7
-10 8 -29 2 -16 -4 -32 -6 -35 -2 -8 7 -56 9 -56 2 0 -3 -9 -6 -20 -6 -11 0
-20 4 -20 9 0 5 -7 4 -15 -3 -8 -7 -15 -9 -15 -4 0 5 -11 9 -25 9 -14 0 -25
-2 -25 -5 0 -7 -70 -4 -76 3 -3 3 -18 1 -34 -3 -16 -4 -31 -6 -34 -2 -8 7 -56
9 -56 2 0 -3 -9 -6 -20 -6 -11 0 -20 4 -20 9 0 5 -7 4 -15 -3 -8 -7 -15 -9
-15 -4 0 5 -11 9 -25 9 -14 0 -25 -2 -25 -5 0 -7 -70 -4 -77 4 -3 3 -14 1 -24
-4 -12 -7 -20 -7 -24 0 -5 8 -11 7 -21 -1 -11 -9 -14 -9 -14 0 0 8 -5 9 -19 1
-14 -7 -22 -7 -26 0 -5 8 -11 7 -21 -1 -11 -9 -14 -9 -14 0 0 8 -5 9 -19 1
-14 -7 -22 -7 -26 0 -5 8 -11 7 -21 -1 -11 -9 -14 -9 -14 0 0 8 -5 9 -19 1
-14 -7 -22 -7 -26 0 -5 8 -11 7 -21 -1 -8 -6 -14 -7 -14 -2 0 5 -9 9 -20 9
-11 0 -20 -3 -20 -6 0 -3 -9 -6 -20 -6 -11 0 -20 4 -20 9 0 5 -7 4 -15 -3 -8
-7 -15 -9 -15 -4 0 5 -11 9 -25 9 -14 0 -25 -2 -25 -5 0 -3 -15 -4 -32 -3 -18
1 -33 2 -33 3 0 1 -12 3 -27 4 -16 1 -28 -1 -28 -4 0 -3 -9 -6 -20 -6 -11 0
-20 4 -20 9 0 5 -7 4 -15 -3 -8 -7 -15 -9 -15 -4 0 5 -11 9 -25 9 -14 0 -25
-2 -25 -5 0 -3 -15 -4 -32 -3 -18 1 -33 2 -33 3 0 1 -12 3 -27 4 -16 1 -28 -1
-28 -4 0 -3 -9 -6 -20 -6 -11 0 -20 5 -20 10 0 6 -4 6 -11 -1 -6 -6 -23 -8
-43 -3 -19 4 -40 3 -49 -1 -10 -6 -18 -5 -22 1 -5 8 -11 7 -21 -1 -11 -9 -14
-9 -14 0 0 8 -5 9 -19 1 -14 -7 -22 -7 -26 0 -5 8 -11 7 -21 -1 -11 -9 -14 -9
-14 0 0 8 -5 9 -19 1 -14 -7 -22 -7 -26 0 -5 8 -11 7 -21 -1 -11 -9 -14 -9
-14 0 0 8 -5 9 -19 1 -14 -7 -22 -7 -26 0 -5 8 -11 7 -21 -1 -9 -7 -14 -8 -14
-1 0 7 -10 8 -29 2 -16 -4 -32 -6 -35 -2 -8 7 -56 9 -56 2 0 -3 -9 -6 -20 -6
-11 0 -20 4 -20 9 0 5 -7 4 -15 -3 -8 -7 -15 -9 -15 -4 0 5 -11 9 -25 9 -14 0
-25 -2 -25 -5 0 -7 -70 -4 -76 3 -3 3 -18 1 -34 -3 -16 -4 -31 -6 -34 -2 -8 7
-56 9 -56 2 0 -3 -9 -6 -20 -6 -11 0 -20 4 -20 9 0 5 -7 4 -15 -3 -8 -7 -15
-9 -15 -4 0 5 -11 9 -25 9 -14 0 -25 -2 -25 -5 0 -7 -70 -4 -77 4 -3 3 -14 1
-24 -4 -12 -7 -20 -7 -24 0 -5 8 -11 7 -21 -1 -11 -9 -14 -9 -14 0 0 8 -5 9
-19 1 -14 -7 -22 -7 -26 0 -5 8 -11 7 -21 -1 -11 -9 -14 -9 -14 0 0 8 -5 9
-19 1 -14 -7 -22 -7 -26 0 -5 8 -11 7 -21 -1 -11 -9 -14 -9 -14 0 0 8 -5 9
-19 1 -14 -7 -22 -7 -26 0 -5 8 -11 7 -21 -1 -8 -6 -14 -7 -14 -2 0 5 -9 9
-20 9 -11 0 -20 -3 -20 -6 0 -3 -9 -6 -20 -6 -11 0 -20 4 -20 9 0 5 -7 4 -15
-3 -8 -7 -15 -9 -15 -4 0 5 -11 9 -25 9 -14 0 -25 -2 -25 -5 0 -3 -15 -4 -32
-3 -18 1 -33 2 -33 3 0 1 -12 3 -27 4 -16 1 -28 -1 -28 -4 0 -3 -9 -6 -20 -6
-11 0 -20 4 -20 9 0 5 -7 4 -15 -3 -8 -7 -15 -9 -15 -4 0 5 -11 9 -25 9 -14 0
-25 -2 -25 -5 0 -3 -15 -4 -32 -3 -18 1 -33 2 -33 3 0 1 -12 3 -27 4 -16 1
-28 -1 -28 -4 0 -3 -9 -6 -20 -6 -11 0 -20 5 -20 10 0 6 -4 6 -11 -1 -6 -6
-23 -8 -43 -3 -19 4 -40 3 -49 -1 -10 -6 -18 -5 -22 1 -5 8 -11 7 -21 -1 -11
-9 -14 -9 -14 0 0 8 -5 9 -19 1 -14 -7 -22 -7 -26 0 -5 8 -11 7 -21 -1 -11 -9
-14 -9 -14 0 0 8 -5 9 -19 1 -14 -7 -22 -7 -26 0 -5 8 -11 7 -21 -1 -11 -9
-14 -9 -14 0 0 8 -5 9 -19 1 -14 -7 -22 -7 -26 0 -5 8 -11 7 -21 -1 -9 -7 -14
-8 -14 -1 0 7 -10 8 -29 2 -16 -4 -32 -6 -35 -2 -8 7 -56 9 -56 2 0 -3 -9 -6
-20 -6 -11 0 -20 4 -20 9 0 5 -6 4 -13 -2 -8 -6 -17 -8 -21 -4 -9 10 -46 11
-46 2 0 -4 -14 -4 -31 1 -25 7 -30 6 -25 -5z m590 -296 c-4 -8 0 -8 15 0 12 7
21 8 21 2 0 -10 19 -10 35 1 6 4 17 3 25 -2 8 -5 22 -5 32 1 10 5 18 6 18 1 0
-5 7 -9 15 -9 8 0 15 4 15 9 0 5 8 4 19 -1 10 -6 21 -8 24 -5 9 9 57 12 57 4
0 -10 20 -8 38 3 7 5 12 3 12 -3 0 -6 5 -8 11 -5 16 10 59 13 59 5 0 -9 20 -8
35 2 6 4 17 3 25 -2 8 -5 22 -5 32 1 10 5 18 6 18 1 0 -5 7 -9 15 -9 8 0 15 4
15 9 0 5 8 4 19 -1 10 -6 21 -8 24 -5 9 9 57 12 57 4 0 -9 20 -8 35 2 6 4 17
3 25 -2 8 -5 22 -5 32 1 10 5 18 6 18 1 0 -5 7 -9 15 -9 8 0 15 4 15 9 0 5 8
4 19 -1 10 -6 21 -8 24 -5 9 9 57 12 57 4 0 -9 20 -8 35 2 6 4 17 3 25 -2 9
-5 19 -5 27 2 9 7 13 7 13 -1 0 -9 5 -9 20 -1 14 8 20 8 20 0 0 -8 6 -8 20 0
14 8 20 8 20 0 0 -8 6 -8 20 0 14 8 20 8 20 0 0 -8 6 -8 20 0 14 8 20 8 20 0
0 -8 6 -8 20 0 14 8 20 8 20 0 0 -8 6 -8 20 0 14 8 20 8 20 0 0 -8 6 -8 20 0
14 8 20 8 20 0 0 -8 6 -8 20 0 14 8 20 8 20 0 0 -8 6 -8 20 0 14 8 20 8 20 0
0 -8 6 -8 20 0 14 8 20 8 20 0 0 -8 6 -8 20 0 14 8 20 8 20 0 0 -8 6 -8 20 0
14 8 20 8 20 0 0 -8 6 -8 20 0 14 8 20 8 20 0 0 -8 6 -8 20 0 14 8 20 8 20 0
0 -8 6 -8 20 0 12 6 20 7 20 1 0 -6 11 -6 30 -1 17 5 30 5 30 0 0 -10 19 -8
38 3 7 5 12 3 12 -3 0 -6 5 -8 11 -5 16 10 59 13 59 5 0 -9 20 -8 35 2 6 4 17
3 25 -2 8 -5 22 -5 32 1 10 5 18 6 18 1 0 -5 7 -9 15 -9 8 0 15 4 15 9 0 5 8
4 19 -1 10 -6 21 -8 24 -5 9 9 57 12 57 4 0 -9 20 -8 35 2 6 4 17 3 25 -2 8
-5 22 -5 32 1 10 5 18 6 18 1 0 -5 7 -9 15 -9 8 0 15 4 15 9 0 5 8 4 19 -1 10
-6 21 -8 24 -5 9 10 57 12 57 2 0 -5 9 -4 20 2 12 6 20 7 20 1 0 -10 19 -9 38
2 7 5 12 3 12 -3 0 -6 5 -8 11 -5 16 10 59 13 59 5 0 -9 20 -8 35 2 6 4 17 3
25 -2 8 -5 22 -5 32 1 10 5 18 6 18 1 0 -5 7 -9 15 -9 8 0 15 4 15 9 0 5 8 4
19 -1 10 -6 21 -8 24 -5 9 9 57 12 57 4 0 -9 20 -8 35 2 6 4 17 3 25 -2 8 -5
22 -5 32 1 10 5 18 6 18 1 0 -5 7 -9 15 -9 8 0 15 4 15 9 0 5 8 4 19 -1 10 -6
21 -8 24 -5 11 11 57 11 57 0 0 -6 5 -4 10 4 7 11 10 11 10 2 0 -10 5 -10 20
-2 14 8 20 8 20 0 0 -8 6 -8 20 0 14 8 20 8 20 0 0 -8 6 -8 20 0 14 8 20 8 20
0 0 -8 6 -8 20 0 14 8 20 8 20 0 0 -8 6 -8 20 0 14 8 20 8 20 0 0 -8 6 -8 20
0 14 8 20 8 20 0 0 -8 6 -8 20 0 14 8 20 8 20 0 0 -8 6 -8 20 0 14 8 20 8 20
0 0 -8 6 -8 20 0 14 8 20 8 20 0 0 -8 6 -8 20 0 14 8 20 8 20 0 0 -8 6 -8 20
0 14 8 20 8 20 0 0 -8 6 -8 20 0 14 8 20 8 20 0 0 -8 6 -8 20 0 14 8 20 8 20
0 0 -8 6 -8 20 0 14 8 20 8 20 0 0 -8 6 -8 20 0 11 6 20 7 20 3 0 -10 41 -10
56 0 5 3 16 2 24 -3 8 -5 22 -5 32 1 10 5 18 6 18 1 0 -5 7 -9 15 -9 8 0 15 4
15 9 0 5 8 4 19 -1 10 -6 21 -8 24 -5 9 9 57 12 57 4 0 -9 20 -8 35 2 6 4 17
3 25 -2 8 -5 22 -5 32 1 10 5 18 6 18 1 0 -5 7 -9 15 -9 8 0 15 4 15 9 0 5 8
4 19 -1 10 -6 21 -8 24 -5 9 9 57 12 57 4 0 -9 20 -8 35 2 6 4 17 3 25 -2 8
-5 22 -5 32 1 10 5 18 6 18 1 0 -5 7 -9 15 -9 8 0 15 4 15 9 0 5 8 4 18 -1 10
-5 24 -6 32 -1 25 15 48 -7 52 -50 2 -22 1 -40 -3 -40 -3 0 -3 -18 1 -40 4
-22 4 -40 0 -40 -4 0 -4 -18 0 -40 4 -22 4 -40 0 -40 -4 0 -4 -18 0 -40 4 -22
4 -40 0 -40 -4 0 -4 -18 0 -40 4 -22 4 -40 0 -40 -4 0 -4 -18 0 -40 4 -22 4
-40 0 -40 -4 0 -4 -18 0 -40 4 -22 4 -40 0 -40 -4 0 -4 -18 0 -40 4 -22 4 -40
0 -40 -4 0 -4 -18 0 -40 4 -22 4 -40 0 -40 -4 0 -4 -18 0 -40 5 -27 4 -40 -4
-40 -6 0 -4 -5 4 -10 8 -5 10 -10 5 -10 -6 0 -10 -16 -9 -35 1 -19 -1 -35 -5
-36 -3 0 -14 -2 -23 -4 -10 -2 -20 1 -24 6 -3 5 -10 9 -15 9 -6 0 -8 -4 -5 -9
4 -5 -8 -6 -28 -1 -18 4 -40 3 -49 -1 -10 -6 -18 -5 -22 1 -5 8 -11 7 -21 -1
-8 -6 -14 -7 -14 -2 0 5 -9 9 -20 9 -11 0 -20 -3 -20 -6 0 -3 -9 -6 -20 -6
-11 0 -20 4 -20 9 0 5 -7 4 -15 -3 -8 -7 -15 -9 -15 -4 0 5 -11 9 -25 9 -14 0
-25 -2 -25 -5 0 -3 -17 -4 -37 -2 -51 4 -54 4 -83 3 -14 -1 -32 -1 -40 0 -8 0
-26 0 -40 0 -14 -1 -32 -1 -40 0 -8 0 -26 0 -40 -1 -14 -1 -37 1 -52 3 -16 2
-28 1 -28 -2 0 -4 -9 -7 -20 -7 -11 0 -20 4 -20 9 0 5 -7 4 -15 -3 -8 -7 -15
-9 -15 -4 0 5 -11 9 -25 9 -14 0 -25 -3 -25 -6 0 -8 -38 -5 -46 4 -4 4 -13 2
-21 -4 -7 -6 -13 -7 -13 -2 0 5 -9 9 -20 9 -11 0 -20 -3 -20 -6 0 -3 -9 -6
-20 -6 -11 0 -20 5 -20 10 0 6 -4 6 -11 -1 -6 -6 -23 -8 -43 -3 -19 4 -40 3
-49 -1 -10 -6 -18 -5 -22 1 -5 8 -11 7 -21 -1 -8 -6 -14 -7 -14 -2 0 5 -9 9
-20 9 -11 0 -20 -3 -20 -6 0 -3 -9 -6 -20 -6 -11 0 -20 4 -20 9 0 5 -7 4 -15
-3 -8 -7 -15 -9 -15 -4 0 5 -11 9 -25 9 -14 0 -25 -3 -25 -6 0 -8 -38 -5 -46
4 -4 4 -13 2 -21 -4 -7 -6 -13 -7 -13 -2 0 5 -9 9 -20 9 -11 0 -20 -3 -20 -6
0 -3 -9 -6 -20 -6 -11 0 -20 5 -20 10 0 6 -4 6 -11 -1 -6 -6 -23 -8 -43 -3
-19 4 -40 3 -49 -1 -10 -6 -18 -5 -22 1 -5 8 -11 7 -21 -1 -11 -9 -14 -9 -14
0 0 8 -5 9 -19 1 -14 -7 -22 -7 -26 0 -5 8 -11 7 -21 -1 -8 -6 -14 -7 -14 -2
0 5 -9 9 -20 9 -11 0 -20 -3 -20 -6 0 -3 -9 -6 -20 -6 -11 0 -20 5 -20 10 0 6
-4 6 -11 -1 -6 -6 -23 -8 -43 -3 -19 4 -40 3 -49 -1 -10 -6 -18 -5 -22 1 -5 8
-11 7 -21 -1 -11 -9 -14 -9 -14 0 0 8 -5 9 -19 1 -14 -7 -22 -7 -26 0 -5 8
-11 7 -21 -1 -8 -6 -14 -7 -14 -2 0 5 -9 9 -20 9 -11 0 -20 -3 -20 -6 0 -3 -9
-6 -20 -6 -11 0 -20 5 -20 10 0 6 -4 6 -11 -1 -6 -6 -23 -8 -43 -3 -19 4 -40
3 -49 -1 -10 -6 -18 -5 -22 1 -5 8 -11 7 -21 -1 -11 -9 -14 -9 -14 0 0 8 -5 9
-19 1 -14 -7 -22 -7 -26 0 -5 8 -11 7 -21 -1 -8 -6 -14 -7 -14 -2 0 5 -9 9
-20 9 -11 0 -20 -3 -20 -6 0 -3 -9 -6 -20 -6 -11 0 -20 5 -20 10 0 6 -4 6 -11
-1 -6 -6 -23 -8 -43 -3 -19 4 -40 3 -49 -1 -10 -6 -18 -5 -22 1 -5 8 -11 7
-21 -1 -9 -7 -14 -8 -14 -1 0 7 -10 8 -29 2 -15 -4 -34 -4 -41 0 -7 4 -25 4
-40 0 -15 -4 -33 -4 -40 0 -7 4 -25 4 -40 0 -15 -4 -33 -4 -40 0 -7 4 -25 4
-41 0 -15 -5 -30 -6 -32 -3 -8 7 -57 11 -57 4 0 -4 -9 -7 -20 -7 -11 0 -20 4
-20 9 0 5 -7 4 -15 -3 -8 -7 -15 -9 -15 -4 0 5 -11 9 -25 9 -14 0 -25 -3 -25
-6 0 -8 -38 -5 -46 4 -4 4 -13 2 -21 -4 -7 -6 -13 -7 -13 -2 0 5 -9 9 -20 9
-11 0 -20 -3 -20 -6 0 -3 -9 -6 -20 -6 -11 0 -20 5 -20 10 0 6 -4 6 -11 -1 -6
-6 -23 -8 -43 -3 -19 4 -41 3 -50 -2 -10 -6 -16 -5 -16 2 0 7 -6 8 -19 0 -16
-8 -21 -6 -26 10 -3 11 -14 20 -22 20 -9 0 -14 2 -11 5 6 7 -101 115 -113 115
-5 0 -9 4 -9 8 0 12 -100 112 -111 112 -5 0 -9 4 -9 8 0 11 -100 112 -110 112
-5 0 -12 9 -15 20 -3 11 -14 20 -22 20 -9 0 -14 2 -11 5 5 5 -205 218 -230
234 -8 5 -13 11 -13 15 1 3 -2 7 -6 8 -5 1 -17 13 -28 27 -31 40 -42 51 -49
44 -3 -4 -6 1 -6 10 0 10 -7 17 -16 17 -8 0 -13 3 -11 8 2 4 -15 23 -39 42
-50 41 -54 57 -16 63 15 2 28 5 30 6 2 0 0 -4 -4 -10z m4560 -185 c9 -3 13
-10 10 -15 -3 -5 2 -9 10 -9 9 0 16 -5 16 -10 0 -11 101 -109 113 -110 4 0 7
-4 7 -10 0 -10 134 -142 151 -148 5 -2 9 -7 9 -12 0 -11 121 -130 132 -130 5
0 6 -4 3 -10 -3 -5 2 -10 11 -10 10 0 15 -3 12 -6 -7 -6 39 -54 52 -54 6 0 10
-3 10 -8 0 -11 138 -152 150 -152 14 0 13 -27 -2 -33 -7 -2 -23 0 -35 4 -13 5
-23 5 -23 1 0 -4 -9 -8 -20 -8 -11 0 -20 3 -20 7 0 9 -21 6 -37 -4 -8 -5 -13
-3 -13 3 0 8 -6 8 -20 0 -15 -8 -20 -8 -20 1 0 9 -3 9 -14 0 -10 -9 -16 -9
-21 -1 -5 8 -11 8 -21 -1 -8 -6 -14 -7 -14 -2 0 5 -9 9 -20 9 -11 0 -20 -3
-20 -6 0 -3 -9 -6 -20 -6 -11 0 -20 4 -20 9 0 5 -7 4 -15 -3 -8 -7 -15 -9 -15
-4 0 5 -11 9 -25 9 -14 0 -25 -2 -25 -5 0 -7 -70 -4 -76 3 -3 3 -18 2 -33 -3
-16 -4 -34 -4 -41 0 -7 4 -26 4 -41 0 -16 -5 -31 -5 -34 0 -3 4 -14 6 -24 3
-11 -3 -28 0 -38 6 -14 8 -14 11 -3 11 13 0 13 1 0 10 -9 6 -11 13 -5 18 6 4
10 97 10 242 0 145 -4 238 -10 242 -6 5 -4 8 5 8 13 0 13 1 0 10 -13 9 -13 10
0 10 13 0 13 1 0 10 -8 5 -10 10 -5 10 6 0 8 26 5 70 -5 71 -4 75 24 64z
m-4824 -63 c0 -11 69 -81 80 -81 5 0 12 -9 15 -20 4 -11 11 -18 16 -15 5 4 9
2 9 -3 0 -11 161 -172 172 -172 4 0 8 -7 8 -16 0 -8 5 -12 10 -9 6 3 10 2 10
-3 0 -14 68 -81 75 -74 3 3 5 -2 5 -11 0 -9 8 -17 17 -17 9 0 14 -2 11 -5 -5
-5 98 -113 152 -159 14 -11 27 -25 29 -31 2 -5 6 -9 10 -8 4 1 15 -11 25 -26
11 -15 32 -36 48 -47 15 -10 28 -23 28 -29 0 -5 14 -19 30 -30 16 -11 30 -26
30 -33 0 -7 5 -10 10 -7 6 3 10 -1 10 -9 0 -8 9 -18 20 -21 11 -3 20 -13 20
-21 0 -8 7 -14 15 -14 10 0 14 -9 11 -30 -2 -16 1 -30 7 -30 5 0 4 -7 -3 -15
-7 -8 -8 -15 -3 -15 5 0 9 -9 9 -20 0 -11 -3 -20 -7 -20 -3 0 -4 -12 -2 -27 5
-33 5 -39 4 -73 -1 -14 -1 -32 0 -40 0 -8 0 -26 0 -40 -1 -14 -1 -32 0 -40 0
-8 0 -26 -1 -40 0 -14 0 -42 2 -62 2 -21 1 -38 -2 -38 -3 0 -5 -11 -5 -25 0
-14 4 -25 9 -25 5 0 3 -7 -4 -15 -7 -8 -8 -15 -3 -15 5 0 9 -9 9 -20 0 -11 -3
-20 -6 -20 -3 0 -6 -9 -6 -20 0 -11 4 -20 9 -20 5 0 4 -6 -2 -14 -8 -10 -9
-16 -1 -21 6 -4 7 -12 1 -22 -4 -9 -5 -30 -1 -49 5 -20 3 -37 -3 -43 -7 -7 -7
-11 -1 -11 5 0 10 -9 10 -20 0 -11 -3 -20 -6 -20 -3 0 -6 -9 -6 -20 0 -11 4
-20 9 -20 5 0 4 -6 -2 -13 -6 -8 -8 -17 -4 -21 9 -8 12 -46 4 -46 -3 0 -6 -11
-6 -25 0 -14 4 -25 9 -25 5 0 3 -7 -4 -15 -7 -8 -8 -15 -3 -15 5 0 9 -9 9 -20
0 -11 -3 -20 -7 -20 -3 0 -4 -12 -2 -27 5 -33 5 -39 4 -73 -1 -14 -1 -32 0
-40 0 -8 0 -26 0 -40 -1 -14 -1 -32 0 -40 0 -8 0 -26 -1 -40 0 -14 0 -42 2
-62 2 -21 1 -38 -2 -38 -3 0 -5 -11 -5 -25 0 -14 4 -25 9 -25 5 0 3 -7 -4 -15
-7 -8 -8 -15 -3 -15 5 0 9 -9 9 -20 0 -11 -3 -20 -6 -20 -3 0 -6 -9 -6 -20 0
-11 4 -20 9 -20 5 0 4 -6 -2 -14 -8 -10 -9 -16 -1 -21 6 -4 7 -12 1 -22 -4 -9
-5 -30 -1 -49 5 -20 3 -37 -3 -43 -7 -7 -7 -11 -1 -11 5 0 10 -9 10 -20 0 -11
-3 -20 -6 -20 -3 0 -6 -9 -6 -20 0 -11 4 -20 9 -20 5 0 4 -6 -2 -13 -6 -8 -8
-17 -4 -21 9 -8 12 -46 4 -46 -3 0 -6 -11 -6 -25 0 -14 4 -25 9 -25 5 0 3 -7
-4 -15 -7 -8 -8 -15 -3 -15 5 0 9 -9 9 -20 0 -11 -3 -20 -6 -20 -3 0 -6 -9 -6
-20 0 -11 4 -20 9 -20 5 0 4 -6 -2 -14 -8 -10 -9 -16 -1 -21 6 -4 7 -12 1 -22
-4 -9 -5 -30 -1 -49 5 -20 3 -37 -3 -43 -7 -7 -7 -11 -1 -11 5 0 10 -9 10 -20
0 -11 -3 -20 -6 -20 -3 0 -6 -9 -6 -20 0 -11 4 -20 9 -20 5 0 4 -6 -2 -14 -8
-10 -9 -16 -1 -21 7 -4 7 -12 0 -26 -8 -14 -7 -19 1 -19 9 0 9 -3 0 -14 -8
-10 -9 -16 -1 -21 6 -4 7 -12 1 -22 -4 -9 -5 -30 -1 -49 5 -20 3 -37 -3 -43
-7 -7 -7 -11 -1 -11 5 0 10 -9 10 -20 0 -11 -3 -20 -6 -20 -3 0 -6 -9 -6 -20
0 -11 4 -20 9 -20 5 0 4 -6 -2 -14 -8 -10 -9 -16 -1 -21 7 -4 7 -12 0 -26 -8
-14 -7 -19 1 -19 9 0 9 -3 0 -14 -8 -10 -9 -16 -1 -21 6 -4 7 -12 1 -22 -4 -9
-5 -30 -1 -49 5 -20 3 -37 -3 -43 -7 -7 -7 -11 -1 -11 5 0 10 -9 10 -20 0 -11
-3 -20 -6 -20 -3 0 -6 -9 -6 -20 0 -11 4 -20 9 -20 5 0 4 -6 -2 -14 -8 -10 -9
-16 -1 -21 7 -4 7 -12 0 -26 -8 -14 -7 -19 1 -19 9 0 9 -3 0 -14 -8 -10 -9
-16 -1 -21 6 -4 7 -12 1 -22 -4 -9 -5 -30 -1 -49 5 -20 3 -37 -3 -43 -7 -7 -7
-11 -1 -11 5 0 10 -9 10 -20 0 -11 -3 -20 -6 -20 -3 0 -6 -9 -6 -20 0 -11 4
-20 9 -20 5 0 4 -6 -2 -14 -8 -9 -8 -16 -2 -20 7 -4 7 -15 1 -31 -6 -15 -6
-27 0 -30 5 -3 7 -12 4 -20 -4 -11 -29 -14 -107 -14 -56 0 -106 -1 -112 -2 -5
-1 -14 -1 -19 0 -12 3 -207 3 -221 0 -5 -1 -14 -1 -19 0 -26 5 -216 2 -225 -4
-6 -3 -11 0 -12 7 0 10 -2 10 -6 0 -2 -6 -9 -9 -15 -6 -6 4 -47 6 -90 5 -55
-2 -78 1 -73 8 3 6 1 11 -5 11 -8 0 -8 6 0 20 8 15 8 20 -2 20 -9 0 -9 3 2 10
8 5 10 10 4 10 -11 0 -11 46 0 57 3 3 1 14 -5 24 -5 11 -6 19 -1 19 5 0 9 7 9
15 0 8 -4 15 -9 15 -5 0 -4 8 1 18 6 10 6 24 1 32 -5 8 -6 19 -2 25 10 15 11
35 2 35 -8 0 -5 48 4 57 3 3 1 14 -5 24 -5 11 -6 19 -1 19 5 0 9 7 9 15 0 8
-4 15 -9 15 -5 0 -4 8 1 18 6 10 6 24 1 32 -5 8 -6 19 -2 25 10 15 11 35 2 35
-8 0 -5 43 5 59 3 6 1 11 -5 11 -6 0 -8 5 -3 13 11 18 12 37 2 37 -6 0 -5 8 1
20 6 11 7 20 2 20 -10 0 -8 48 2 57 3 3 1 14 -5 24 -5 11 -6 19 -1 19 5 0 9 7
9 15 0 8 -4 15 -9 15 -5 0 -4 8 1 18 6 10 6 24 1 32 -5 8 -6 19 -2 25 10 15
11 35 2 35 -8 0 -5 48 4 57 3 3 1 14 -5 24 -5 11 -6 19 -1 19 5 0 9 7 9 15 0
8 -4 15 -9 15 -5 0 -4 8 1 18 6 10 6 24 1 32 -5 8 -6 19 -2 25 10 15 11 35 2
35 -8 0 -5 43 5 59 3 6 1 11 -5 11 -6 0 -8 5 -3 13 11 18 13 37 3 37 -5 0 -5
14 0 30 5 19 5 30 -1 30 -6 0 -5 8 1 20 8 14 8 20 0 20 -8 0 -8 6 0 20 8 14 8
20 0 20 -8 0 -8 6 0 20 8 14 8 20 0 20 -8 0 -8 6 0 20 8 14 8 20 0 20 -8 0 -8
6 0 20 8 14 8 20 0 20 -8 0 -8 6 0 20 8 14 8 20 0 20 -8 0 -8 6 0 20 8 14 8
20 0 20 -8 0 -8 6 0 20 8 14 8 20 0 20 -8 0 -8 6 0 20 8 14 8 20 0 20 -8 0 -8
6 0 20 8 14 8 20 0 20 -8 0 -8 6 0 20 8 14 8 20 0 20 -8 0 -8 6 0 20 8 14 8
20 0 20 -8 0 -8 6 0 20 8 14 8 20 0 20 -8 0 -8 6 0 20 8 14 8 20 0 20 -8 0 -8
6 0 20 8 15 8 20 -1 20 -8 0 -8 4 -1 13 7 8 7 18 2 27 -5 8 -6 19 -2 25 10 15
11 35 2 35 -8 0 -5 48 4 57 3 3 1 14 -5 24 -5 11 -6 19 -1 19 5 0 9 7 9 15 0
8 -4 15 -9 15 -5 0 -4 8 1 18 6 10 6 24 1 32 -5 8 -6 19 -2 25 10 15 11 35 2
35 -8 0 -5 48 4 57 3 3 1 14 -5 24 -5 11 -6 19 -1 19 5 0 9 7 9 15 0 8 -4 15
-9 15 -5 0 -4 8 1 18 6 10 6 24 1 32 -5 8 -6 19 -2 25 10 15 11 35 2 35 -8 0
-5 48 4 57 3 3 1 14 -5 24 -5 11 -6 19 -1 19 5 0 9 7 9 15 0 8 -4 15 -9 15 -5
0 -4 8 1 18 6 10 6 24 1 32 -5 8 -6 19 -2 25 10 15 11 35 2 35 -8 0 -5 48 4
57 3 3 1 14 -5 24 -5 11 -6 19 -1 19 5 0 9 7 9 15 0 8 -4 15 -9 15 -5 0 -4 8
1 18 6 10 6 24 1 32 -5 8 -6 19 -2 25 10 15 11 35 2 35 -8 0 -5 48 4 57 3 3 1
14 -5 24 -5 11 -6 19 -1 19 5 0 9 7 9 15 0 8 -4 15 -9 15 -5 0 -4 8 1 18 6 10
6 24 1 32 -5 8 -6 19 -3 24 10 15 10 56 0 56 -4 0 -3 9 3 20 8 14 8 20 0 20
-8 0 -8 6 0 20 8 14 8 20 0 20 -8 0 -8 6 0 20 8 14 8 20 0 20 -8 0 -8 6 0 20
8 14 8 20 0 20 -8 0 -8 6 0 20 8 14 8 20 0 20 -8 0 -8 6 0 20 8 14 8 20 0 20
-8 0 -8 6 0 20 8 14 8 20 0 20 -8 0 -8 6 0 20 8 14 8 20 0 20 -8 0 -8 6 0 20
8 14 8 20 0 20 -8 0 -8 6 0 20 8 14 8 20 0 20 -8 0 -8 6 0 20 8 14 8 20 0 20
-8 0 -8 6 0 20 8 14 8 20 0 20 -8 0 -8 6 0 20 8 14 8 20 0 20 -8 0 -8 6 0 20
8 14 8 20 0 20 -8 0 -8 6 0 20 8 15 8 20 -2 20 -9 0 -9 3 2 10 8 5 10 10 4 10
-12 0 -11 41 1 59 3 6 1 11 -5 11 -6 0 -8 5 -3 13 11 17 13 37 3 37 -8 0 -5
48 4 57 3 3 1 14 -5 24 -5 11 -6 19 -1 19 5 0 9 7 9 15 0 8 -4 15 -9 15 -5 0
-5 8 0 18 5 9 6 28 2 42 -8 33 -1 60 16 60 8 0 14 -4 14 -9z m1197 -956 c6 0
14 3 18 7 4 4 17 3 30 -2 14 -5 26 -5 34 3 8 8 11 8 11 -1 0 -9 5 -10 19 -2
13 7 22 7 26 0 4 -7 13 -7 26 0 13 8 19 7 19 0 0 -8 6 -8 20 0 12 6 20 7 20 1
0 -10 19 -10 35 1 6 4 17 3 25 -2 8 -5 22 -5 32 1 12 7 18 6 18 -1 0 -7 6 -8
19 0 13 7 22 7 26 0 4 -7 13 -7 26 0 13 8 19 7 19 0 0 -8 6 -8 20 0 12 6 20 7
20 1 0 -10 19 -10 35 1 6 4 17 3 25 -2 8 -5 22 -5 32 1 13 7 18 6 18 -2 0 -8
4 -8 15 1 11 9 15 9 15 1 0 -9 5 -9 20 -1 12 6 20 7 20 1 0 -6 11 -6 30 -1 17
5 30 5 30 0 0 -9 19 -8 35 2 6 4 17 3 25 -2 8 -5 22 -5 32 1 12 7 18 6 18 -1
0 -7 6 -8 19 0 13 7 22 7 26 0 4 -7 13 -7 26 0 13 8 19 7 19 0 0 -8 6 -8 20 0
12 6 20 7 20 1 0 -10 19 -10 35 1 6 4 17 3 25 -2 8 -5 22 -5 32 1 12 7 18 6
18 -1 0 -7 6 -8 19 0 13 7 22 7 26 0 4 -7 13 -7 26 0 13 8 19 7 19 0 0 -8 6
-8 20 0 12 6 20 7 20 1 0 -10 19 -10 35 1 6 4 17 3 25 -2 8 -5 22 -5 32 1 12
6 18 6 18 0 0 -7 9 -7 25 -1 14 5 25 6 25 1 0 -10 19 -9 35 1 6 4 17 3 25 -2
8 -5 22 -5 32 1 12 7 18 6 18 -1 0 -7 6 -8 19 0 13 7 22 7 26 0 4 -7 13 -7 26
0 13 8 19 7 19 0 0 -8 6 -8 20 0 12 6 20 7 20 1 0 -10 19 -10 35 1 6 4 17 3
25 -2 8 -5 22 -5 32 1 12 7 18 6 18 -1 0 -7 6 -8 19 0 13 7 22 7 26 0 4 -7 13
-7 26 0 13 8 19 7 19 0 0 -8 6 -8 20 0 12 6 20 7 20 1 0 -10 19 -9 38 2 7 5
12 3 12 -3 0 -6 5 -8 11 -5 16 10 59 13 59 5 0 -9 26 -7 36 3 4 3 14 2 24 -3
10 -5 20 -6 24 -3 8 9 56 10 56 2 0 -8 47 -5 56 4 4 3 14 2 24 -3 10 -5 20 -6
24 -3 8 9 56 10 56 2 0 -8 47 -5 56 4 4 3 14 2 24 -3 10 -5 20 -6 24 -3 8 9
56 10 56 2 0 -8 47 -5 56 4 4 3 14 2 24 -3 10 -5 20 -6 24 -3 9 9 56 10 56 2
0 -9 20 -6 37 4 6 4 14 3 18 -3 4 -7 12 -7 26 0 13 8 19 7 19 0 0 -8 6 -8 20
0 12 6 20 7 20 1 0 -10 19 -10 35 1 6 4 17 3 25 -2 8 -5 22 -5 32 1 12 7 18 6
18 -1 0 -7 6 -8 19 0 13 7 22 7 26 0 4 -7 13 -7 26 0 13 8 19 7 19 0 0 -8 6
-8 20 0 12 6 20 7 20 1 0 -10 19 -10 35 1 6 4 17 3 25 -2 8 -5 22 -5 32 1 12
7 18 6 18 -1 0 -7 6 -8 19 0 13 7 22 7 26 0 4 -7 13 -7 26 0 13 8 19 7 19 0 0
-8 6 -8 20 0 12 6 20 7 20 1 0 -10 19 -9 38 2 7 5 12 3 12 -3 0 -7 6 -8 19 -1
27 15 48 -6 53 -51 2 -21 1 -38 -3 -38 -3 0 -3 -18 1 -40 4 -22 4 -40 0 -40
-4 0 -4 -18 0 -40 4 -22 4 -40 0 -40 -4 0 -4 -18 0 -40 4 -22 4 -40 0 -40 -4
0 -4 -18 0 -40 4 -22 4 -40 0 -40 -4 0 -4 -18 0 -40 4 -22 4 -40 0 -40 -4 0
-4 -18 0 -40 4 -22 4 -40 0 -40 -4 0 -4 -18 0 -40 4 -22 4 -40 0 -40 -4 0 -4
-18 0 -40 4 -22 4 -40 0 -40 -4 0 -4 -18 0 -40 4 -22 4 -40 0 -40 -4 0 -4 -18
0 -40 4 -22 4 -40 0 -40 -4 0 -4 -18 0 -40 4 -22 4 -40 0 -40 -4 0 -4 -18 0
-40 4 -22 4 -40 0 -40 -4 0 -4 -18 0 -40 4 -22 4 -40 0 -40 -4 0 -4 -18 0 -40
4 -22 4 -40 0 -40 -4 0 -4 -18 0 -40 4 -22 4 -40 0 -40 -4 0 -4 -18 0 -40 4
-22 4 -40 0 -40 -4 0 -4 -18 0 -40 4 -22 4 -40 0 -40 -4 0 -4 -18 0 -40 4 -22
4 -40 0 -40 -4 0 -4 -18 0 -40 4 -22 4 -40 0 -40 -4 0 -4 -18 0 -40 4 -22 4
-40 0 -40 -4 0 -4 -18 0 -40 4 -22 4 -40 0 -40 -4 0 -4 -18 0 -40 4 -22 4 -40
0 -40 -4 0 -4 -18 0 -40 4 -22 4 -40 0 -40 -4 0 -4 -18 0 -40 4 -22 4 -40 0
-40 -4 0 -4 -18 0 -40 4 -22 4 -40 0 -40 -4 0 -4 -18 0 -40 4 -22 4 -40 0 -40
-4 0 -4 -18 0 -40 4 -22 4 -40 0 -40 -4 0 -4 -18 0 -40 4 -22 4 -40 0 -40 -4
0 -4 -18 0 -40 4 -22 4 -40 0 -40 -4 0 -4 -18 0 -40 4 -22 4 -40 0 -40 -4 0
-4 -18 0 -40 4 -22 4 -40 0 -40 -4 0 -4 -18 0 -40 4 -22 4 -40 0 -40 -4 0 -4
-18 0 -40 4 -22 4 -40 0 -40 -4 0 -4 -18 0 -40 4 -22 4 -40 0 -40 -4 0 -4 -18
0 -40 4 -22 4 -40 0 -40 -4 0 -4 -18 0 -40 4 -22 4 -40 0 -40 -4 0 -4 -18 0
-40 4 -22 4 -40 0 -40 -4 0 -4 -18 0 -40 4 -22 4 -40 0 -40 -4 0 -4 -18 0 -40
4 -22 4 -40 -1 -40 -4 0 -4 -13 1 -30 5 -18 5 -30 0 -30 -6 0 -6 -10 0 -24 7
-20 5 -25 -16 -35 -18 -8 -24 -8 -24 2 0 8 -4 7 -10 -3 -5 -8 -10 -10 -10 -5
0 8 -167 12 -190 4 -3 -1 -9 -1 -14 0 -12 3 -207 3 -221 0 -5 -1 -14 -1 -19 0
-12 3 -207 3 -221 0 -5 -1 -14 -1 -19 0 -12 3 -207 3 -221 0 -5 -1 -14 -1 -19
0 -12 3 -207 3 -221 0 -5 -1 -14 -1 -19 0 -12 3 -207 3 -221 0 -5 -1 -14 -1
-19 0 -12 3 -207 3 -221 0 -5 -1 -14 -1 -19 0 -12 3 -207 3 -221 0 -5 -1 -14
-1 -19 0 -12 3 -207 3 -221 0 -5 -1 -14 -1 -19 0 -12 3 -207 3 -221 0 -5 -1
-14 -1 -19 0 -12 3 -207 3 -221 0 -5 -1 -14 -1 -19 0 -12 3 -207 3 -221 0 -5
-1 -14 -1 -19 0 -26 5 -216 2 -225 -4 -6 -3 -11 0 -12 7 0 10 -2 10 -6 0 -2
-6 -9 -9 -15 -6 -6 4 -47 6 -90 5 -55 -2 -78 1 -73 8 3 6 1 11 -5 11 -8 0 -8
6 0 20 8 15 8 20 -2 20 -9 0 -9 3 2 10 8 5 10 10 4 10 -12 0 -11 41 1 59 3 6
1 11 -5 11 -6 0 -8 5 -3 13 11 18 12 37 2 37 -6 0 -5 8 1 20 8 14 8 20 0 20
-7 0 -8 6 0 19 7 13 7 22 0 26 -7 4 -7 13 0 26 8 13 7 19 0 19 -7 0 -8 6 -1
18 6 10 6 24 1 32 -5 8 -6 19 -2 25 11 16 11 35 1 35 -6 0 -5 8 1 20 8 14 8
20 0 20 -7 0 -8 6 0 19 7 13 7 22 0 26 -7 4 -7 13 0 26 8 13 7 19 0 19 -7 0
-8 6 -1 18 6 10 6 24 1 32 -5 8 -6 19 -2 25 10 16 11 35 1 35 -5 0 -4 11 1 25
6 16 6 25 -1 25 -6 0 -6 6 0 18 6 10 6 24 1 32 -5 8 -6 19 -2 25 11 16 11 35
1 35 -6 0 -5 8 1 20 8 14 8 20 0 20 -7 0 -8 6 0 19 7 13 7 22 0 26 -7 4 -7 13
0 26 8 13 7 19 0 19 -7 0 -8 6 -1 18 6 10 6 24 1 32 -5 8 -6 19 -2 25 11 16
11 35 1 35 -6 0 -5 8 1 20 8 14 8 20 0 20 -7 0 -8 6 0 19 7 13 7 22 0 26 -7 4
-7 13 0 26 8 13 7 19 0 19 -7 0 -8 6 -1 18 6 10 6 24 1 32 -5 8 -6 19 -2 25
11 17 11 35 1 35 -6 0 -7 4 -4 10 10 16 14 50 7 50 -9 0 -8 47 1 56 3 4 2 14
-3 24 -5 10 -6 20 -3 24 9 9 12 56 4 56 -8 0 -7 48 2 56 3 4 2 14 -3 24 -5 10
-6 20 -3 24 9 9 12 56 4 56 -8 0 -7 48 2 56 3 4 2 14 -3 24 -5 10 -6 20 -3 24
9 9 12 56 4 56 -8 0 -7 48 2 56 3 4 2 14 -3 24 -5 10 -6 20 -3 24 10 9 10 56
0 56 -4 0 -3 9 3 20 8 15 8 20 -1 20 -8 0 -8 4 1 15 9 11 9 15 1 15 -8 0 -9 5
-2 18 6 10 6 24 1 32 -5 8 -6 19 -2 25 11 16 11 35 1 35 -6 0 -5 8 1 20 8 14
8 20 0 20 -7 0 -8 6 0 19 7 13 7 22 0 26 -7 4 -7 13 0 26 8 13 7 19 0 19 -7 0
-8 6 -1 18 6 10 6 24 1 32 -5 8 -6 19 -2 25 11 16 11 35 1 35 -6 0 -5 8 1 20
8 14 8 20 0 20 -7 0 -8 6 0 19 7 13 7 22 0 26 -7 4 -7 13 0 26 8 13 7 19 0 19
-7 0 -8 6 -1 18 6 10 6 24 1 32 -5 8 -6 19 -2 25 11 16 11 35 1 35 -6 0 -5 8
1 20 8 14 8 20 0 20 -7 0 -8 6 0 19 7 13 7 22 0 26 -7 4 -7 13 0 26 8 13 7 19
0 19 -7 0 -8 6 -1 18 6 10 6 24 1 32 -5 8 -6 19 -2 25 11 16 11 35 1 35 -6 0
-5 8 1 20 8 14 8 20 0 20 -7 0 -8 6 0 19 7 13 7 22 0 26 -7 4 -7 13 0 26 8 13
7 19 0 19 -7 0 -8 6 -1 18 6 10 6 24 1 32 -5 8 -6 19 -2 25 11 16 11 35 1 35
-6 0 -5 8 1 20 8 14 8 20 0 20 -7 0 -8 6 0 19 7 14 7 22 0 26 -6 4 -7 12 -3
18 4 6 6 27 5 47 -1 19 1 30 5 25 5 -6 13 -11 20 -10z m3757 7 c11 6 16 5 16
-3 0 -8 4 -8 15 1 11 9 15 9 15 1 0 -9 5 -9 20 -1 11 6 20 7 20 3 0 -10 47
-10 56 0 4 3 14 2 24 -3 10 -5 20 -6 24 -3 8 9 56 10 56 2 0 -8 47 -5 56 4 4
3 14 2 24 -3 10 -5 20 -6 24 -3 8 9 56 10 56 2 0 -8 47 -5 56 4 4 3 14 2 24
-3 10 -5 20 -6 24 -3 8 9 56 10 56 2 0 -8 47 -5 56 4 4 3 15 2 25 -3 10 -6 20
-6 23 -1 3 5 21 5 40 1 19 -4 38 -5 41 -2 3 4 2 -5 -3 -18 -5 -13 -6 -39 -2
-57 5 -18 4 -33 0 -33 -5 0 -5 -13 0 -30 5 -16 6 -30 2 -30 -4 0 -5 -40 -2
-90 3 -50 2 -90 -2 -90 -4 0 -3 -13 2 -30 5 -16 6 -30 2 -30 -4 0 -5 -40 -2
-90 3 -50 2 -90 -2 -90 -4 0 -3 -13 2 -30 5 -16 5 -30 1 -30 -5 0 -5 -18 -1
-40 4 -22 5 -40 1 -40 -3 0 -4 -40 -1 -90 3 -50 2 -90 -2 -90 -4 0 -3 -13 2
-30 5 -16 6 -30 2 -30 -4 0 -5 -40 -2 -90 3 -50 2 -90 -2 -90 -4 0 -3 -13 2
-30 5 -16 6 -30 2 -30 -4 0 -5 -40 -2 -90 3 -50 2 -90 -2 -90 -4 0 -3 -13 2
-30 5 -16 6 -30 2 -30 -4 0 -5 -40 -2 -90 3 -50 2 -90 -2 -90 -4 0 -3 -13 2
-30 5 -16 6 -30 2 -30 -4 0 -5 -40 -2 -90 3 -50 2 -90 -2 -90 -4 0 -3 -13 2
-30 5 -16 5 -30 1 -30 -5 0 -5 -18 -1 -40 4 -22 5 -40 1 -40 -3 0 -4 -40 -1
-90 3 -50 2 -90 -2 -90 -4 0 -3 -13 2 -30 5 -16 6 -30 2 -30 -4 0 -5 -40 -2
-90 3 -50 2 -90 -2 -90 -4 0 -3 -13 2 -30 5 -16 6 -30 2 -30 -4 0 -5 -40 -2
-90 3 -50 2 -90 -2 -90 -4 0 -3 -13 2 -30 5 -16 6 -30 2 -30 -4 0 -5 -40 -2
-90 3 -50 2 -90 -2 -90 -4 0 -3 -13 2 -30 5 -16 6 -30 2 -30 -4 0 -5 -40 -2
-90 3 -50 2 -90 -2 -90 -4 0 -3 -13 2 -30 5 -16 6 -30 2 -30 -4 0 -5 -40 -2
-90 3 -50 2 -90 -2 -90 -4 0 -3 -13 2 -30 5 -16 6 -30 2 -30 -4 0 -5 -40 -2
-90 3 -50 2 -90 -2 -90 -4 0 -3 -13 2 -30 5 -16 6 -30 2 -30 -4 0 -5 -40 -2
-90 3 -50 2 -90 -2 -90 -4 0 -3 -13 2 -30 5 -16 5 -30 2 -30 -4 0 -5 -32 -2
-71 3 -39 1 -73 -3 -76 -5 -3 -3 -9 4 -14 11 -7 11 -9 1 -9 -10 0 -10 -5 -2
-20 8 -15 8 -20 -2 -20 -9 0 -9 -3 2 -10 9 -6 10 -10 3 -10 -8 0 -9 -9 -3 -30
5 -16 5 -32 2 -34 -8 -5 -8 -58 0 -72 3 -5 1 -13 -6 -19 -7 -7 -18 -3 -33 12
-12 13 -20 23 -18 23 2 0 -22 25 -53 55 -31 30 -60 55 -64 55 -5 0 -8 6 -8 14
0 8 -9 18 -21 21 -11 4 -19 9 -16 11 6 7 -97 111 -105 106 -5 -2 -8 1 -8 6 0
9 -176 187 -201 203 -8 5 -11 9 -8 9 10 0 -102 110 -112 110 -5 0 -9 3 -9 8 0
11 -100 112 -111 112 -5 0 -9 4 -9 9 0 11 -101 111 -112 111 -5 0 -8 766 -8
1703 0 936 -2 1711 -4 1723 -4 18 1 20 35 20 21 -1 39 2 39 5 0 4 15 3 34 -1
18 -4 41 -3 50 2z m-4754 -3634 c0 7 4 11 9 7 13 -7 549 -8 561 0 6 3 10 0 10
-7 0 -9 3 -9 10 2 5 8 10 10 10 4 0 -7 11 -9 25 -6 33 6 60 -15 44 -34 -6 -8
-7 -14 -2 -14 5 0 9 -9 9 -20 0 -11 -3 -20 -6 -20 -3 0 -6 -9 -6 -20 0 -11 4
-20 9 -20 5 0 4 -6 -2 -14 -8 -10 -9 -16 -1 -21 6 -4 7 -12 1 -22 -4 -9 -5
-30 -1 -49 5 -20 3 -37 -3 -43 -7 -7 -7 -11 -1 -11 5 0 10 -9 10 -20 0 -11 -3
-20 -6 -20 -3 0 -6 -9 -6 -20 0 -11 4 -20 9 -20 5 0 4 -6 -2 -14 -8 -10 -9
-16 -1 -21 6 -4 7 -12 1 -22 -4 -9 -5 -30 -1 -49 5 -20 3 -37 -3 -43 -7 -7 -7
-11 -1 -11 5 0 10 -9 10 -20 0 -11 -3 -20 -6 -20 -3 0 -6 -16 -6 -35 -1 -19 3
-32 7 -29 5 3 5 -6 -1 -20 -5 -15 -6 -28 0 -31 13 -8 1 -35 -15 -35 -7 0 -15
4 -17 9 -6 16 -158 171 -168 171 -6 0 -10 6 -10 13 0 6 -14 21 -30 32 -16 11
-30 23 -30 26 0 10 -102 109 -112 109 -5 0 -8 3 -6 8 4 9 -90 101 -97 94 -3
-3 -5 2 -5 12 0 9 -4 14 -10 11 -5 -3 -10 0 -10 7 -1 7 -19 27 -40 43 -21 17
-39 33 -40 37 0 10 -103 108 -113 108 -4 0 -6 4 -2 9 3 5 -3 11 -12 14 -15 3
-14 6 7 14 18 8 27 7 32 -1 5 -8 8 -7 8 2z m1020 -1 c0 4 733 6 1630 3 897 -3
1630 -2 1630 1 0 3 20 3 45 -1 25 -4 45 -3 45 1 0 5 11 -3 25 -17 14 -14 25
-29 25 -35 0 -6 5 -7 10 -4 6 3 10 2 10 -4 0 -12 48 -61 60 -61 5 0 12 -9 15
-20 4 -11 11 -18 16 -15 5 4 9 -1 9 -10 0 -9 5 -13 10 -10 6 3 10 -1 10 -9 0
-8 9 -18 20 -21 11 -3 20 -10 20 -15 0 -10 111 -120 122 -120 4 0 7 -6 5 -12
-1 -7 3 -12 8 -11 6 1 19 -11 29 -26 11 -15 32 -36 48 -47 15 -10 28 -23 28
-29 0 -5 14 -19 30 -30 16 -11 30 -26 30 -33 0 -7 5 -10 10 -7 6 3 10 2 10 -3
0 -11 264 -275 280 -280 5 -2 8 -7 6 -11 -3 -4 9 -16 25 -26 34 -23 37 -41 9
-48 -11 -3 -20 -2 -20 1 0 4 -558 7 -1240 7 -682 0 -1240 -3 -1240 -7 0 -4
-13 -3 -30 2 -16 5 -30 6 -30 2 0 -4 -40 -5 -90 -2 -50 3 -90 2 -90 -2 0 -4
-13 -3 -30 2 -17 5 -30 6 -30 2 0 -4 -40 -5 -90 -2 -50 3 -90 2 -90 -2 0 -4
-13 -3 -30 2 -16 5 -30 6 -30 2 0 -4 -40 -5 -90 -2 -50 3 -90 2 -90 -2 0 -4
-13 -3 -30 2 -16 5 -30 6 -30 2 0 -4 -40 -5 -90 -2 -50 3 -90 2 -90 -2 0 -4
-13 -3 -30 2 -16 5 -30 6 -30 2 0 -4 -40 -5 -90 -2 -50 3 -90 2 -90 -2 0 -4
-13 -3 -30 2 -16 5 -30 6 -30 2 0 -4 -40 -5 -90 -2 -50 3 -90 2 -90 -2 0 -4
-13 -3 -30 2 -16 5 -30 6 -30 2 0 -4 -40 -5 -90 -2 -50 3 -90 1 -90 -3 0 -5
-4 -6 -8 -3 -5 3 -26 6 -48 7 l-40 3 6 43 c4 24 3 43 -2 43 -5 0 -4 8 1 18 6
10 6 24 1 32 -5 8 -6 19 -2 25 11 16 11 35 1 35 -6 0 -5 8 1 20 8 14 8 20 0
20 -7 0 -8 6 0 19 7 13 7 22 0 26 -7 4 -7 13 0 26 8 13 7 19 0 19 -7 0 -8 6
-1 18 6 10 6 24 1 32 -5 8 -6 19 -2 25 11 16 11 35 1 35 -6 0 -5 8 1 20 8 14
8 20 0 20 -7 0 -8 6 0 19 7 13 7 22 0 26 -7 4 -7 13 0 26 8 13 7 19 0 19 -7 0
-8 6 -1 18 6 10 6 24 1 32 -5 8 -6 19 -2 25 11 16 11 35 1 35 -6 0 -5 8 1 20
8 14 8 20 0 20 -7 0 -8 6 0 19 7 13 7 22 0 26 -7 4 -7 13 0 26 8 13 7 19 0 19
-6 0 -8 5 -4 12 11 17 11 58 1 58 -4 0 -2 6 5 14 9 10 18 11 31 5 9 -6 17 -6
17 -2z"/>
</g>
</svg>
